<?xml version="1.0" encoding="utf-8"?>
<!-- Generator: Adobe Illustrator 26.2.1, SVG Export Plug-In . SVG Version: 6.00 Build 0)  -->
<svg version="1.1" id="Layer_1" xmlns="http://www.w3.org/2000/svg" xmlns:xlink="http://www.w3.org/1999/xlink" x="0px" y="0px"
	 width="41.1px" height="14.7px" viewBox="0 0 41.1 14.7" style="enable-background:new 0 0 41.1 14.7;" xml:space="preserve">
<style type="text/css">
	.st0{fill:#0055FF;}
	.st1{fill:#FFFFFF;}
</style>
<g id="XMLID_127_">
	<path class="st0" d="M42.7,17.5H-1.5c-1,0-1.8-0.8-1.8-1.8V-1.1c0-1,0.8-1.8,1.8-1.8h44.2c1,0,1.8,0.8,1.8,1.8v16.8
		C44.5,16.7,43.7,17.5,42.7,17.5z"/>
	<g id="XMLID_2_">
		<path id="XMLID_72_" class="st1" d="M3.1,9.4C2.7,9.3,2.5,9.1,2.3,8.8C2.1,8.6,2,8.3,2,8h1.4c0,0.2,0.1,0.3,0.2,0.4
			C3.8,8.5,4,8.6,4.2,8.6c0.2,0,0.3,0,0.4-0.1c0.1-0.1,0.1-0.2,0.1-0.3c0-0.1-0.1-0.2-0.2-0.3C4.4,7.8,4.1,7.7,3.8,7.7
			C3.5,7.6,3.2,7.5,3,7.4C2.7,7.3,2.6,7.2,2.4,7C2.2,6.8,2.1,6.5,2.1,6.2c0-0.3,0.1-0.5,0.2-0.7C2.5,5.2,2.7,5.1,3,4.9
			c0.3-0.1,0.6-0.2,1-0.2c0.6,0,1.1,0.1,1.4,0.4C5.8,5.5,6,5.9,6.1,6.4H4.7c0-0.2-0.1-0.3-0.2-0.4C4.4,5.9,4.2,5.8,4,5.8
			c-0.2,0-0.3,0-0.4,0.1C3.5,6,3.5,6.1,3.5,6.2c0,0.1,0.1,0.2,0.2,0.3c0.1,0.1,0.4,0.1,0.7,0.2C4.8,6.8,5,6.9,5.3,7
			c0.2,0.1,0.4,0.2,0.6,0.4C6,7.6,6.1,7.9,6.1,8.2c0,0.3-0.1,0.5-0.2,0.7C5.7,9.2,5.5,9.3,5.2,9.4c-0.3,0.1-0.6,0.2-1,0.2
			C3.8,9.6,3.4,9.6,3.1,9.4z"/>
		<path id="XMLID_145_" class="st1" d="M7.1,4.1C6.9,3.9,6.9,3.8,6.9,3.5c0-0.2,0.1-0.4,0.2-0.6c0.2-0.2,0.4-0.2,0.6-0.2
			C8,2.7,8.2,2.8,8.3,3c0.2,0.2,0.2,0.3,0.2,0.6c0,0.2-0.1,0.4-0.2,0.6C8.2,4.2,8,4.3,7.7,4.3C7.5,4.3,7.3,4.2,7.1,4.1z M8.5,4.8
			v4.8H7V4.8H8.5z"/>
		<path id="XMLID_148_" class="st1" d="M12.2,4.9c0.3,0.1,0.4,0.3,0.6,0.5V4.8h1.5v4.7c0,0.4-0.1,0.8-0.3,1.2
			c-0.2,0.4-0.4,0.6-0.8,0.8c-0.4,0.2-0.8,0.3-1.3,0.3c-0.7,0-1.3-0.2-1.7-0.5c-0.4-0.3-0.7-0.8-0.7-1.4h1.4c0,0.2,0.2,0.3,0.3,0.4
			c0.2,0.1,0.4,0.2,0.6,0.2c0.3,0,0.5-0.1,0.7-0.3c0.2-0.2,0.3-0.5,0.3-0.8V8.9c-0.1,0.2-0.3,0.4-0.6,0.5c-0.3,0.1-0.5,0.2-0.9,0.2
			c-0.4,0-0.7-0.1-1.1-0.3C9.9,9.1,9.7,8.8,9.5,8.5C9.3,8.1,9.2,7.7,9.2,7.2c0-0.5,0.1-0.9,0.3-1.3C9.7,5.5,9.9,5.2,10.3,5
			c0.3-0.2,0.7-0.3,1.1-0.3C11.7,4.7,11.9,4.8,12.2,4.9z M12.5,6.3C12.3,6.1,12,6,11.7,6S11.2,6.1,11,6.3c-0.2,0.2-0.3,0.5-0.3,0.9
			c0,0.4,0.1,0.7,0.3,0.9c0.2,0.2,0.4,0.3,0.7,0.3s0.5-0.1,0.7-0.3c0.2-0.2,0.3-0.5,0.3-0.9C12.8,6.8,12.7,6.5,12.5,6.3z"/>
		<path id="XMLID_151_" class="st1" d="M19.5,5.3C19.9,5.7,20,6.2,20,6.8v2.8h-1.4V7c0-0.3-0.1-0.6-0.2-0.7C18.2,6.1,17.9,6,17.7,6
			c-0.3,0-0.5,0.1-0.7,0.3c-0.2,0.2-0.2,0.4-0.2,0.7v2.6h-1.5V3.3h1.5v2.2c0.1-0.2,0.3-0.4,0.6-0.5c0.3-0.1,0.5-0.2,0.9-0.2
			C18.8,4.8,19.2,4.9,19.5,5.3z"/>
		<path id="XMLID_153_" class="st1" d="M23.7,8.3v1.2H23c-0.5,0-0.9-0.1-1.2-0.4c-0.3-0.3-0.4-0.7-0.4-1.3V6h-0.6V4.8h0.6V3.7h1.5
			v1.2h1V6h-1v1.9c0,0.1,0,0.2,0.1,0.3c0.1,0.1,0.2,0.1,0.3,0.1L23.7,8.3L23.7,8.3z"/>
		<path id="XMLID_155_" class="st1" d="M25.5,9.4c-0.3-0.1-0.6-0.3-0.8-0.6c-0.2-0.2-0.3-0.5-0.3-0.8h1.4c0,0.2,0.1,0.3,0.2,0.4
			c0.1,0.1,0.3,0.2,0.5,0.2c0.2,0,0.3,0,0.4-0.1c0.1-0.1,0.1-0.2,0.1-0.3c0-0.1-0.1-0.2-0.2-0.3c-0.1-0.1-0.4-0.1-0.7-0.2
			c-0.3-0.1-0.6-0.2-0.9-0.3C25.2,7.3,25,7.2,24.8,7s-0.2-0.4-0.2-0.8c0-0.3,0.1-0.5,0.2-0.7c0.2-0.2,0.4-0.4,0.7-0.5
			c0.3-0.1,0.6-0.2,1-0.2c0.6,0,1.1,0.1,1.4,0.4c0.3,0.3,0.5,0.7,0.6,1.2h-1.3c0-0.2-0.1-0.3-0.2-0.4c-0.1-0.1-0.3-0.1-0.5-0.1
			c-0.2,0-0.3,0-0.4,0.1C26,6,25.9,6.1,25.9,6.2c0,0.1,0.1,0.2,0.2,0.3c0.1,0.1,0.4,0.1,0.7,0.2c0.4,0.1,0.6,0.2,0.9,0.3
			c0.2,0.1,0.4,0.2,0.6,0.4c0.2,0.2,0.3,0.5,0.3,0.8c0,0.3-0.1,0.5-0.2,0.7c-0.2,0.2-0.4,0.4-0.7,0.5c-0.3,0.1-0.6,0.2-1,0.2
			C26.2,9.6,25.8,9.6,25.5,9.4z"/>
		<path id="XMLID_157_" class="st1" d="M33.9,7.5h-3.3c0,0.3,0.1,0.5,0.3,0.7c0.2,0.2,0.4,0.2,0.6,0.2c0.4,0,0.6-0.2,0.8-0.5h1.6
			c-0.1,0.3-0.2,0.6-0.4,0.8c-0.2,0.3-0.5,0.4-0.8,0.6c-0.3,0.1-0.7,0.2-1,0.2c-0.5,0-0.9-0.1-1.2-0.3c-0.4-0.2-0.6-0.5-0.9-0.9
			c-0.2-0.4-0.3-0.8-0.3-1.3c0-0.5,0.1-0.9,0.3-1.3c0.2-0.4,0.5-0.7,0.8-0.9c0.4-0.2,0.8-0.3,1.3-0.3c0.5,0,0.9,0.1,1.2,0.3
			c0.4,0.2,0.6,0.5,0.8,0.8s0.3,0.8,0.3,1.3C33.9,7.2,33.9,7.4,33.9,7.5z M32.4,6.7c0-0.2-0.1-0.4-0.3-0.6C32,6,31.8,5.9,31.5,5.9
			c-0.2,0-0.5,0.1-0.6,0.2c-0.2,0.1-0.3,0.3-0.3,0.6C30.6,6.7,32.4,6.7,32.4,6.7z"/>
		<path id="XMLID_160_" class="st1" d="M39.1,7.5h-3.3c0,0.3,0.1,0.5,0.3,0.7c0.2,0.2,0.4,0.2,0.6,0.2c0.4,0,0.6-0.2,0.8-0.5H39
			c-0.1,0.3-0.2,0.6-0.4,0.8c-0.2,0.3-0.5,0.4-0.8,0.6c-0.3,0.1-0.7,0.2-1,0.2c-0.5,0-0.9-0.1-1.2-0.3c-0.4-0.2-0.6-0.5-0.9-0.9
			c-0.2-0.4-0.3-0.8-0.3-1.3c0-0.5,0.1-0.9,0.3-1.3c0.2-0.4,0.5-0.7,0.8-0.9c0.4-0.2,0.8-0.3,1.3-0.3c0.5,0,0.9,0.1,1.2,0.3
			c0.4,0.2,0.6,0.5,0.8,0.8s0.3,0.8,0.3,1.3C39.2,7.2,39.2,7.4,39.1,7.5z M37.7,6.7c0-0.2-0.1-0.4-0.3-0.6C37.2,6,37,5.9,36.8,5.9
			c-0.2,0-0.5,0.1-0.6,0.2c-0.2,0.1-0.3,0.3-0.3,0.6C35.8,6.7,37.7,6.7,37.7,6.7z"/>
	</g>
</g>
</svg>
