<?xml version="1.0" encoding="utf-8"?>
<!-- Generator: Adobe Illustrator 19.0.0, SVG Export Plug-In . SVG Version: 6.00 Build 0)  -->
<svg version="1.2" baseProfile="tiny" id="Layer_1" xmlns="http://www.w3.org/2000/svg" xmlns:xlink="http://www.w3.org/1999/xlink"
	 x="0px" y="0px" viewBox="0 0 46.3532 9.16971" xml:space="preserve">
<g id="XMLID_127_">
	<g id="XMLID_74_">
		<g id="XMLID_144_">
			<path fill="#0055FF" d="M6.62125,2.02885c-1.5147-1.5147-3.97051-1.5147-5.48522,0c-1.5147,1.51471-1.5147,3.97052,0,5.48522
				c1.51471,1.5147,3.97052,1.5147,5.48522,0S8.13595,3.54356,6.62125,2.02885z M6.10365,6.29601
				c-1.03541,1.03541-2.71413,1.03541-3.74954,0s-1.03541-2.71413,0-3.74955c1.03541-1.03541,2.71413-1.03541,3.74954,0
				C7.13906,3.58187,7.13906,5.2606,6.10365,6.29601z"/>
		</g>
		<g id="XMLID_73_">
			<circle id="XMLID_163_" fill="#0055FF" cx="5.16626" cy="3.48385" r="1.32566"/>
		</g>
	</g>
	<g id="XMLID_2_">
		<path id="XMLID_72_" fill="#0055FF" d="M9.84793,6.68135C9.52406,6.53931,9.26842,6.34471,9.08097,6.09754
			C8.89344,5.85037,8.7883,5.57351,8.76562,5.2667h1.44024c0.01706,0.16478,0.09376,0.29822,0.23011,0.40044
			c0.13635,0.10236,0.30383,0.15341,0.50281,0.15341c0.1817,0,0.32235-0.03537,0.4218-0.10653
			c0.09931-0.07088,0.14918-0.16326,0.14918-0.27685c0-0.13649-0.07116-0.23719-0.21305-0.30265
			c-0.1421-0.06519-0.37222-0.1376-0.69033-0.21721c-0.34087-0.07948-0.625-0.16326-0.8522-0.25147
			C9.5269,4.57789,9.33091,4.43863,9.1662,4.24832c-0.16485-0.1903-0.24717-0.44746-0.24717-0.77134
			c0-0.27269,0.07525-0.52118,0.22581-0.74568c0.15049-0.22436,0.37208-0.40183,0.66474-0.53263
			c0.29253-0.13059,0.64047-0.19599,1.04396-0.19599c0.5965,0,1.06657,0.14779,1.41035,0.44316
			c0.34371,0.29544,0.54116,0.68749,0.59234,1.17608h-1.34648c-0.02282-0.16478-0.09522-0.29537-0.21735-0.39205
			c-0.1222-0.09654-0.28268-0.14488-0.48151-0.14488c-0.1704,0-0.3012,0.03273-0.39198,0.098
			c-0.09092,0.0654-0.13635,0.15486-0.13635,0.26846c0,0.13635,0.0724,0.23857,0.21728,0.30682
			c0.14488,0.0681,0.37076,0.13635,0.6775,0.20445c0.35224,0.09099,0.63915,0.18045,0.86073,0.26853
			c0.22158,0.08808,0.41611,0.23011,0.58374,0.4261c0.16756,0.19599,0.25425,0.45884,0.25993,0.78826
			c0,0.27838-0.07816,0.52708-0.23434,0.74568c-0.15632,0.21874-0.38068,0.39073-0.67327,0.51557
			c-0.29267,0.12497-0.63208,0.18753-1.01837,0.18753C10.54104,6.8944,10.17174,6.82338,9.84793,6.68135z"/>
		<path id="XMLID_145_" fill="#0055FF" d="M13.88314,1.35078C13.7212,1.20028,13.6402,1.01414,13.6402,0.79256
			c0-0.2272,0.081-0.41611,0.24294-0.56675C14.04501,0.07539,14.25383,0,14.50946,0c0.24995,0,0.45592,0.07539,0.61786,0.22581
			c0.16194,0.15063,0.24287,0.33955,0.24287,0.56675c0,0.22158-0.08093,0.40772-0.24287,0.55822
			c-0.16194,0.15056-0.36791,0.22581-0.61786,0.22581C14.25383,1.57659,14.04501,1.50134,13.88314,1.35078z M15.23385,2.07086
			v4.75529h-1.45723V2.07086H15.23385z"/>
		<path id="XMLID_148_" fill="#0055FF" d="M18.97923,2.20721c0.25272,0.13635,0.44739,0.31535,0.58374,0.53686v-0.6732h1.4573
			v4.74683c0,0.43734-0.08669,0.83362-0.25993,1.18884c-0.17338,0.35495-0.43755,0.63763-0.79256,0.8479
			c-0.35509,0.21014-0.79679,0.31528-1.32519,0.31528c-0.70448,0-1.27546-0.16617-1.71287-0.49851
			c-0.43761-0.33234-0.68749-0.78271-0.74998-1.35071h1.44024c0.04543,0.1817,0.15341,0.32512,0.3238,0.43026
			c0.17047,0.10514,0.38061,0.15771,0.63062,0.15771c0.30113,0,0.54116-0.08669,0.72016-0.25993
			c0.17893-0.17338,0.26839-0.45037,0.26839-0.83084V6.14442c-0.14203,0.22151-0.33802,0.40197-0.58797,0.54109
			c-0.25008,0.1394-0.54261,0.20889-0.87779,0.20889c-0.39198,0-0.74713-0.10084-1.06525-0.30252
			c-0.31826-0.20168-0.56966-0.48866-0.75421-0.8608c-0.18468-0.37201-0.27692-0.80241-0.27692-1.29107
			c0-0.48852,0.09224-0.91739,0.27692-1.28683c0.18455-0.36923,0.43595-0.6533,0.75421-0.8522
			c0.31812-0.19883,0.67327-0.29828,1.06525-0.29828C18.43238,2.00269,18.72637,2.07086,18.97923,2.20721z M19.26045,3.58781
			c-0.20175-0.21014-0.44739-0.31535-0.73715-0.31535s-0.53554,0.10375-0.73715,0.31105
			c-0.20175,0.2075-0.30252,0.49296-0.30252,0.8565c0,0.36368,0.10077,0.65191,0.30252,0.86496
			c0.20161,0.21305,0.44739,0.31958,0.73715,0.31958s0.5354-0.105,0.73715-0.31528c0.20161-0.21014,0.30252-0.49712,0.30252-0.8608
			C19.56297,4.08507,19.46206,3.79809,19.26045,3.58781z"/>
		<path id="XMLID_151_" fill="#0055FF" d="M26.31228,2.56091c0.32942,0.36084,0.49434,0.85643,0.49434,1.48712v2.77812h-1.44877
			V4.24402c0-0.31819-0.08239-0.56522-0.24717-0.74138c-0.16478-0.17609-0.38643-0.26423-0.66467-0.26423
			c-0.27852,0-0.50003,0.08815-0.66467,0.26423c-0.16492,0.17616-0.24717,0.42319-0.24717,0.74138v2.58213h-1.45724V0.51987h1.45724
			v2.19015c0.14758-0.21014,0.3494-0.37776,0.60503-0.50281c0.25563-0.1249,0.54247-0.18746,0.86066-0.18746
			C25.54538,2.01975,25.98271,2.20014,26.31228,2.56091z"/>
		<path id="XMLID_153_" fill="#0055FF" d="M30.47107,5.59043v1.23572h-0.74138c-0.52847,0-0.94042-0.12913-1.23572-0.38768
			c-0.29544-0.25855-0.44316-0.68035-0.44316-1.26554V3.281h-0.57951V2.07086h0.57951V0.91185h1.45723v1.15902h0.95443V3.281
			h-0.95443v1.909c0,0.14203,0.03412,0.24426,0.10223,0.30682c0.06824,0.06256,0.18184,0.09363,0.34094,0.09363H30.47107z"/>
		<path id="XMLID_155_" fill="#0055FF" d="M32.27756,6.68135c-0.32387-0.14203-0.57951-0.33664-0.7669-0.58381
			c-0.18753-0.24717-0.29267-0.52403-0.31542-0.83084h1.44031c0.01706,0.16478,0.09377,0.29822,0.23011,0.40044
			c0.13634,0.10236,0.30376,0.15341,0.5028,0.15341c0.18171,0,0.32235-0.03537,0.4218-0.10653
			c0.09931-0.07088,0.14911-0.16326,0.14911-0.27685c0-0.13649-0.07116-0.23719-0.21305-0.30265
			C33.5843,5.06932,33.35419,4.99691,33.036,4.9173c-0.3408-0.07948-0.62501-0.16326-0.8522-0.25147
			c-0.2272-0.08794-0.42319-0.2272-0.58797-0.4175s-0.24717-0.44746-0.24717-0.77134c0-0.27269,0.07532-0.52118,0.22581-0.74568
			c0.15049-0.22436,0.37214-0.40183,0.66481-0.53263c0.29253-0.13059,0.6404-0.19599,1.04389-0.19599
			c0.59657,0,1.06664,0.14779,1.41035,0.44316c0.34371,0.29544,0.54123,0.68749,0.59241,1.17608h-1.34655
			c-0.02275-0.16478-0.09515-0.29537-0.21735-0.39205c-0.1222-0.09654-0.28268-0.14488-0.48144-0.14488
			c-0.17047,0-0.30127,0.03273-0.39198,0.098c-0.09099,0.0654-0.13634,0.15486-0.13634,0.26846
			c0,0.13635,0.0724,0.23857,0.21721,0.30682c0.14494,0.0681,0.37076,0.13635,0.67757,0.20445
			c0.35217,0.09099,0.63915,0.18045,0.86066,0.26853c0.22165,0.08808,0.41611,0.23011,0.58381,0.4261
			c0.16756,0.19599,0.25425,0.45884,0.25993,0.78826c0,0.27838-0.07823,0.52708-0.23441,0.74568
			c-0.15632,0.21874-0.38061,0.39073-0.67327,0.51557C34.1111,6.83184,33.77169,6.8944,33.3854,6.8944
			C32.97067,6.8944,32.60144,6.82338,32.27756,6.68135z"/>
		<path id="XMLID_157_" fill="#0055FF" d="M40.66324,4.79801h-3.29799c0.02261,0.29544,0.11776,0.52125,0.28545,0.67743
			c0.16755,0.15632,0.37353,0.23441,0.61793,0.23441c0.3634,0,0.61626-0.15341,0.75844-0.46022h1.551
			c-0.07962,0.3125-0.22304,0.59366-0.4304,0.8436c-0.2075,0.25009-0.46743,0.44607-0.7798,0.58811
			c-0.3125,0.14203-0.6619,0.21305-1.04819,0.21305c-0.46591,0-0.88064-0.09931-1.24418-0.29835
			c-0.36369-0.19876-0.64775-0.48283-0.8522-0.8522c-0.20459-0.36923-0.30682-0.80102-0.30682-1.29536
			c0-0.49421,0.10084-0.92586,0.30252-1.2953c0.20168-0.36923,0.48436-0.6533,0.8479-0.8522
			c0.36354-0.19883,0.78119-0.29828,1.25278-0.29828c0.46022,0,0.86926,0.09668,1.22726,0.28975
			c0.35786,0.19322,0.63763,0.46868,0.83931,0.82661c0.20168,0.35793,0.30251,0.77557,0.30251,1.25285
			C40.68876,4.50826,40.6803,4.65029,40.66324,4.79801z M39.19741,3.98839c0-0.24995-0.08516-0.44871-0.25563-0.59657
			c-0.17047-0.14772-0.38352-0.22165-0.63915-0.22165c-0.24426,0-0.45024,0.07116-0.61779,0.21305
			c-0.16769,0.14217-0.27144,0.34385-0.31111,0.60517H39.19741z"/>
		<path id="XMLID_160_" fill="#0055FF" d="M45.91281,4.79801h-3.29799c0.02261,0.29544,0.11776,0.52125,0.28546,0.67743
			c0.16755,0.15632,0.37353,0.23441,0.61793,0.23441c0.36341,0,0.61627-0.15341,0.75844-0.46022h1.55099
			c-0.07962,0.3125-0.22303,0.59366-0.4304,0.8436c-0.2075,0.25009-0.46743,0.44607-0.7798,0.58811
			c-0.3125,0.14203-0.6619,0.21305-1.04819,0.21305c-0.46591,0-0.88064-0.09931-1.24418-0.29835
			c-0.36369-0.19876-0.64775-0.48283-0.8522-0.8522c-0.20459-0.36923-0.30682-0.80102-0.30682-1.29536
			c0-0.49421,0.10084-0.92586,0.30252-1.2953c0.20168-0.36923,0.48436-0.6533,0.8479-0.8522
			c0.36354-0.19883,0.78119-0.29828,1.25278-0.29828c0.46022,0,0.86926,0.09668,1.22726,0.28975
			c0.35786,0.19322,0.63763,0.46868,0.83931,0.82661c0.20168,0.35793,0.30251,0.77557,0.30251,1.25285
			C45.93833,4.50826,45.92987,4.65029,45.91281,4.79801z M44.44697,3.98839c0-0.24995-0.08516-0.44871-0.25563-0.59657
			c-0.17047-0.14772-0.38352-0.22165-0.63915-0.22165c-0.24426,0-0.45024,0.07116-0.61779,0.21305
			c-0.16769,0.14217-0.27144,0.34385-0.31112,0.60517H44.44697z"/>
	</g>
	<g id="XMLID_70_">
		<g id="XMLID_69_">
			<path id="XMLID_3_" fill="#0055FF" d="M22.25183,7.98796h23.34681c0.41673,0,0.75455,0.33783,0.75455,0.75455v0H21.49727v0
				C21.49727,8.32579,21.8351,7.98796,22.25183,7.98796z"/>
		</g>
		<g id="XMLID_71_">
			<path id="XMLID_1_" fill="#0055FF" d="M8.49292,7.98796h6.28438c0.41673,0,0.75455,0.33783,0.75455,0.75455v0H9.24748
				C8.83075,8.74252,8.49292,8.40469,8.49292,7.98796L8.49292,7.98796z"/>
		</g>
	</g>
</g>
</svg>
